<svg width="470" height="367" viewBox="0 0 470 367" fill="none" xmlns="http://www.w3.org/2000/svg">
<rect x="31" y="181.885" width="234" height="159.451" fill="white"/>
<rect x="41" y="92.5575" width="87" height="159.451" fill="white"/>
<path d="M225.094 98.1844H287.883C288.981 98.2159 290.073 98.0169 291.093 97.5995C292.113 97.1821 293.039 96.5551 293.815 95.7568C294.592 94.9586 295.201 94.0059 295.607 92.957C296.013 91.9081 296.207 90.7851 296.176 89.6566C296.248 88.5239 296.072 87.389 295.662 86.3351C295.252 85.2811 294.618 84.3348 293.807 83.5653L215.616 3.16007C214.868 2.32557 213.948 1.67368 212.923 1.25211C211.898 0.830534 210.794 0.64994 209.693 0.723544C208.595 0.692034 207.503 0.89107 206.483 1.30848C205.463 1.72589 204.537 2.3529 203.761 3.15115C202.984 3.9494 202.375 4.90211 201.969 5.951C201.563 6.99989 201.369 8.12291 201.4 9.25137V73.8192C201.419 80.2751 203.922 86.4608 208.361 91.0258C212.8 95.5909 218.816 98.1644 225.094 98.1844Z" fill="#297BFF"/>
<path d="M284.329 134.733H201.4C191.98 134.713 182.951 130.856 176.29 124.006C169.629 117.157 165.878 107.872 165.859 98.1853V12.907C165.859 9.67595 164.61 6.57725 162.389 4.29257C160.167 2.00789 157.154 0.724365 154.012 0.724365H35.5411C26.1211 0.744483 17.0924 4.60151 10.4314 11.4512C3.77035 18.3009 0.0195641 27.5853 0 37.2722V329.655C0.0195641 339.342 3.77035 348.626 10.4314 355.476C17.0924 362.326 26.1211 366.183 35.5411 366.203H260.635C270.055 366.183 279.084 362.326 285.745 355.476C292.406 348.626 296.157 339.342 296.176 329.655V146.916C296.176 145.316 295.87 143.732 295.274 142.254C294.679 140.776 293.806 139.433 292.706 138.301C291.606 137.17 290.3 136.273 288.863 135.66C287.425 135.048 285.885 134.733 284.329 134.733ZM47.3882 122.55C47.5206 119.398 48.8224 116.418 51.026 114.223C53.2296 112.028 56.1674 110.785 59.2352 110.749H107.734C109.251 110.739 110.755 111.036 112.16 111.624C113.565 112.211 114.844 113.078 115.924 114.174C117.003 115.27 117.862 116.573 118.451 118.011C119.041 119.448 119.349 120.991 119.359 122.55V134.657C119.265 137.83 117.992 140.846 115.803 143.083C113.613 145.321 110.672 146.611 107.586 146.687H59.2352C57.6906 146.718 56.1558 146.428 54.7228 145.835C53.2897 145.241 51.988 144.356 50.8956 143.233C49.8031 142.109 48.9425 140.771 48.3653 139.297C47.788 137.824 47.5061 136.245 47.5363 134.657L47.3882 122.55ZM225.094 280.696C225.094 283.927 223.846 287.026 221.624 289.31C219.402 291.595 216.389 292.879 213.247 292.879H59.2352C56.0932 292.879 53.0799 291.595 50.8581 289.31C48.6364 287.026 47.3882 283.927 47.3882 280.696V268.742C47.3882 265.511 48.6364 262.412 50.8581 260.127C53.0799 257.843 56.0932 256.559 59.2352 256.559H213.247C216.389 256.559 219.402 257.843 221.624 260.127C223.846 262.412 225.094 265.511 225.094 268.742V280.696ZM248.788 207.6C248.817 209.219 248.533 210.828 247.951 212.333C247.369 213.837 246.501 215.207 245.398 216.363C244.295 217.518 242.979 218.436 241.527 219.063C240.074 219.689 238.516 220.012 236.941 220.011H59.2352C56.0932 220.011 53.0799 218.728 50.8581 216.443C48.6364 214.159 47.3882 211.06 47.3882 207.829V195.646C47.3882 192.415 48.6364 189.316 50.8581 187.032C53.0799 184.747 56.0932 183.464 59.2352 183.464H236.941C240.083 183.464 243.096 184.747 245.318 187.032C247.54 189.316 248.788 192.415 248.788 195.646V207.6Z" fill="#FF0000"/>
<path d="M431.667 188.332C431.667 201.674 419.727 212.491 405 212.491C390.272 212.491 378.333 201.674 378.333 188.332C378.333 174.989 390.272 164.173 405 164.173C419.727 164.173 431.667 174.989 431.667 188.332ZM431.667 188.332V197.392C431.667 205.731 439.129 212.491 448.333 212.491C457.538 212.491 465 205.731 465 197.392V188.332C465 158.31 438.137 133.973 405 133.973C371.863 133.973 345 158.31 345 188.332C345 218.353 371.863 242.69 405 242.69H431.667" stroke="white" stroke-width="10" stroke-linecap="round" stroke-linejoin="round"/>
</svg>
