<svg width="171" height="203" viewBox="0 0 171 203" fill="none" xmlns="http://www.w3.org/2000/svg">
<path d="M135.748 0.486725H65.919H60.5081L56.6845 4.15773L3.82319 54.918L0 58.589V63.7822V168.431C0 187.098 15.8149 202.286 35.2584 202.286H135.748C155.185 202.286 171 187.098 171 168.431V34.3416C171 15.6721 155.185 0.486725 135.748 0.486725ZM157.948 168.431C157.948 180.207 148.009 189.75 135.748 189.75H35.2584C22.9917 189.75 13.0524 180.207 13.0524 168.431V63.7818H47.4159C57.6306 63.7818 65.919 55.8288 65.919 46.018V13.0219H135.748C148.009 13.0219 157.948 22.5656 157.948 34.3416V168.431Z" fill="#297BFF"/>
<path d="M47.3929 100.279C45.3007 100.279 43.7532 101.718 43.7532 104.016V113.26C43.7532 113.452 43.6502 113.549 43.4552 113.549H32.3752C32.1802 113.549 32.0772 113.452 32.0772 113.26V104.016C32.0772 101.718 30.5293 100.279 28.437 100.279C26.2935 100.279 24.7456 101.718 24.7456 104.016V129.692C24.7456 131.989 26.2418 133.426 28.3857 133.426C30.4837 133.426 32.0772 131.989 32.0772 129.692V120.112C32.0772 119.919 32.1802 119.823 32.3752 119.823H43.4552C43.6502 119.823 43.7532 119.919 43.7532 120.112V129.692C43.7532 131.989 45.3007 133.426 47.3929 133.426C49.5368 133.426 51.0843 131.989 51.0843 129.692V104.016C51.0843 101.718 49.5368 100.279 47.3929 100.279Z" fill="#FF0000"/>
<path d="M76.9822 100.567H57.5732C55.332 100.567 53.8818 101.861 53.8818 103.73C53.8818 105.549 55.332 106.842 57.5732 106.842H63.3108C63.5112 106.842 63.6089 106.938 63.6089 107.128V129.692C63.6089 131.942 65.1568 133.426 67.2547 133.426C69.3986 133.426 70.9461 131.942 70.9461 129.692V107.128C70.9461 106.938 71.0434 106.842 71.2441 106.842H76.9818C79.223 106.842 80.6732 105.549 80.6732 103.73C80.6736 101.861 79.2234 100.567 76.9822 100.567Z" fill="#FF0000"/>
<path d="M111.053 100.279C108.858 100.279 107.66 101.429 106.565 103.92L99.4805 119.631H99.2797L92.0459 103.92C90.899 101.429 89.7012 100.279 87.506 100.279C85.0645 100.279 83.4649 101.908 83.4649 104.495V130.027C83.4649 132.182 84.8638 133.426 86.8587 133.426C88.7559 133.426 90.1544 132.182 90.1544 130.027V114.314H90.4007L95.6918 126.001C96.7348 128.302 97.5832 128.973 99.2802 128.973C100.977 128.973 101.825 128.302 102.874 126.001L108.114 114.314H108.36V130.027C108.36 132.182 109.707 133.426 111.702 133.426C113.703 133.426 115.05 132.182 115.05 130.027V104.495C115.049 101.908 113.501 100.279 111.053 100.279Z" fill="#FF0000"/>
<path d="M140.241 126.865H128.17C127.969 126.865 127.872 126.769 127.872 126.576V104.015C127.872 101.764 126.324 100.278 124.232 100.278C122.083 100.278 120.541 101.764 120.541 104.015V129.595C120.541 131.703 121.985 133.139 124.232 133.139H140.242C142.489 133.139 143.934 131.845 143.934 129.977C143.933 128.158 142.489 126.865 140.241 126.865Z" fill="#FF0000"/>
</svg>
