<svg width="120" height="110" viewBox="0 0 120 110" fill="none" xmlns="http://www.w3.org/2000/svg">
<path d="M80.8405 95.3773C80.2187 95.0019 79.6769 94.4986 79.2463 93.8887C79.0474 93.6074 78.8793 93.31 78.7402 93.0026H8.08191V23.8983H103.99V69.021C106.038 69.2044 107.756 70.5388 108.477 72.366C109.116 72.0186 109.828 71.804 110.576 71.7385C111.082 71.6948 111.584 71.726 112.072 71.8216V6.68286C112.072 2.99792 109.051 0 105.338 0H6.73483C3.02136 0 0 2.99792 0 6.68286V94.3395C0 98.0245 3.02136 101.022 6.73483 101.022H80.2267C79.6532 99.8698 79.5172 98.5689 79.8546 97.3173C80.0492 96.5974 80.3859 95.9407 80.8405 95.3773ZM96.5945 11.2218C96.5945 9.85913 97.7079 8.75416 99.0812 8.75416H101.568C102.942 8.75416 104.055 9.85884 104.055 11.2218V14.0184C104.055 15.3812 102.941 16.4858 101.568 16.4858H99.0812C97.7076 16.4858 96.5945 15.3812 96.5945 14.0184V11.2218ZM85.0312 11.2218C85.0312 9.85913 86.1445 8.75416 87.5179 8.75416H90.0049C91.3785 8.75416 92.4916 9.85884 92.4916 11.2218V14.0184C92.4916 15.3812 91.3783 16.4858 90.0049 16.4858H87.5179C86.1445 16.4858 85.0312 15.3812 85.0312 14.0184V11.2218ZM73.4676 11.2218C73.4676 9.85913 74.5812 8.75416 75.9543 8.75416H78.441C79.8146 8.75416 80.928 9.85884 80.928 11.2218V14.0184C80.928 15.3812 79.8146 16.4858 78.441 16.4858H75.9543C74.5812 16.4858 73.4676 15.3812 73.4676 14.0184V11.2218Z" fill="#297BFF"/>
<path d="M119.984 90.6714L119.237 86.4664C119.136 85.9002 118.592 85.5219 118.021 85.6217L114.252 86.2807C113.8 85.2273 113.222 84.2406 112.536 83.3375L114.998 80.426C115.177 80.2151 115.264 79.9415 115.24 79.6661C115.215 79.3908 115.082 79.1368 114.868 78.959L111.572 76.2143C111.359 76.0368 111.083 75.9506 110.806 75.9747C110.528 75.9988 110.272 76.1312 110.093 76.3427L107.634 79.2519C106.624 78.7415 105.545 78.3479 104.413 78.0882V74.291C104.413 73.716 103.943 73.2492 103.364 73.2492H99.0601C98.4809 73.2492 98.0105 73.716 98.0105 74.291V78.0882C96.8786 78.3477 95.7998 78.7415 94.7897 79.2519L92.3298 76.343C91.9572 75.9024 91.2954 75.8451 90.851 76.2145L87.5548 78.959C87.3416 79.1368 87.2081 79.3908 87.1836 79.6661C87.1596 79.9415 87.2464 80.2154 87.4253 80.4269L89.8872 83.3378C89.2025 84.2406 88.6235 85.2279 88.1712 86.281L84.4025 85.6217C83.8327 85.5222 83.2878 85.9002 83.1866 86.4664L82.4396 90.6714C82.3913 90.9433 82.4539 91.2229 82.6131 91.4494C82.7734 91.676 83.016 91.8299 83.2903 91.8778L87.0618 92.5374C87.1233 93.6968 87.3267 94.8185 87.6542 95.8866L84.3394 97.7849C84.0982 97.9224 83.9225 98.1504 83.8502 98.417C83.7781 98.6838 83.8161 98.9679 83.955 99.2072L86.1065 102.905C86.2451 103.144 86.4749 103.319 86.7435 103.39C86.8329 103.414 86.9241 103.425 87.0152 103.425C87.1978 103.425 87.3787 103.378 87.5399 103.286L90.8573 101.385C91.6374 102.215 92.5182 102.95 93.4806 103.571L92.1707 107.142C92.0758 107.402 92.0881 107.688 92.2058 107.938C92.3236 108.189 92.5365 108.382 92.7979 108.477L96.8409 109.937C96.9569 109.978 97.0786 110 97.2001 110C97.3515 110 97.5038 109.967 97.6441 109.902C97.8965 109.786 98.0911 109.574 98.1862 109.314L99.4959 105.744C100.057 105.811 100.629 105.846 101.209 105.846C101.789 105.846 102.36 105.811 102.922 105.744L104.232 109.314C104.326 109.574 104.522 109.786 104.774 109.902C104.914 109.967 105.065 110 105.218 110C105.339 110 105.461 109.979 105.577 109.937L109.62 108.477C109.881 108.382 110.094 108.188 110.212 107.938C110.329 107.688 110.342 107.402 110.247 107.142L108.937 103.572C109.898 102.95 110.779 102.215 111.56 101.386L114.878 103.287C115.038 103.378 115.22 103.426 115.402 103.426C115.493 103.426 115.585 103.414 115.674 103.391C115.943 103.319 116.172 103.144 116.311 102.905L118.462 99.2072C118.601 98.9684 118.639 98.6838 118.567 98.417C118.495 98.151 118.319 97.923 118.078 97.7849L114.764 95.8872C115.091 94.8188 115.294 93.6971 115.356 92.5379L119.127 91.8781C119.401 91.8302 119.645 91.6762 119.804 91.4497C119.97 91.2229 120.032 90.9433 119.984 90.6714ZM101.212 97.3534C98.0245 97.3534 95.4398 94.7887 95.4398 91.6255C95.4398 88.4623 98.0248 85.8979 101.212 85.8979C104.4 85.8979 106.985 88.4623 106.985 91.6255C106.985 94.7887 104.4 97.3534 101.212 97.3534Z" fill="#FF0000"/>
<path d="M47.0635 62.2043C47.0635 60.8569 46.2677 59.6192 45.0358 59.0515L33.761 53.8536L45.036 48.6551C46.2677 48.0869 47.0635 46.8495 47.0635 45.5027V45.4122C47.0635 44.2185 46.458 43.1226 45.4447 42.4821C44.884 42.1268 44.231 41.9388 43.5569 41.9388C43.0489 41.9388 42.5388 42.0496 42.0824 42.26L24.0571 50.5773C22.8258 51.1455 22.0305 52.3829 22.0305 53.7294V53.9781C22.0305 55.3229 22.8255 56.5595 24.0574 57.1305L42.0844 65.4486C42.5505 65.6627 43.0469 65.7713 43.5595 65.7713C44.2276 65.7713 44.8786 65.583 45.4447 65.2257C46.4586 64.5827 47.0638 63.4876 47.0638 62.2953L47.0635 62.2043Z" fill="#FF0000"/>
<path d="M64.8485 33.4639C64.191 32.5708 63.1334 32.0377 62.0192 32.0377H61.9295C60.3995 32.0377 59.0581 33.0089 58.5921 34.4524L46.7158 70.965C46.3778 72.0192 46.5681 73.1803 47.2248 74.0732C47.8823 74.9658 48.9399 75.4991 50.0541 75.4991H50.1441C51.6735 75.4991 53.014 74.5277 53.4795 73.0845L65.3543 36.5747C65.6955 35.5214 65.5064 34.3585 64.8485 33.4639Z" fill="#297BFF"/>
<path d="M88.0148 50.577L69.9893 42.2597C69.5344 42.0499 69.0251 41.9391 68.517 41.9391C67.8432 41.9391 67.19 42.1265 66.6296 42.4812C65.6146 43.1229 65.009 44.2185 65.009 45.4122V45.5026C65.009 46.8483 65.8043 48.086 67.0371 48.6565L78.3115 53.8539L67.0368 59.0515C65.8049 59.6192 65.009 60.8569 65.009 62.2043V62.2953C65.009 63.4876 65.6146 64.5824 66.629 65.226C67.1931 65.5827 67.8446 65.7713 68.5136 65.7713C69.0257 65.7713 69.5215 65.6627 69.9907 65.4477L88.0171 57.1297C89.2479 56.56 90.0426 55.3232 90.0426 53.9784V53.7297C90.0417 52.3829 89.2465 51.1455 88.0148 50.577Z" fill="#FF0000"/>
</svg>
